<svg width="17" height="17" viewBox="0 0 17 17" fill="none" xmlns="http://www.w3.org/2000/svg">
<path d="M12 6.5C12 4.5625 10.9375 2.75 9.25 1.75C7.53125 0.78125 5.4375 0.78125 3.75 1.75C2.03125 2.75 1 4.5625 1 6.5C1 8.46875 2.03125 10.2812 3.75 11.2812C5.4375 12.25 7.53125 12.25 9.25 11.2812C10.9375 10.2812 12 8.46875 12 6.5ZM10.7188 11.4375C9.59375 12.4375 8.09375 13 6.5 13C2.90625 13 0 10.0938 0 6.5C0 2.9375 2.90625 0 6.5 0C10.0625 0 13 2.9375 13 6.5C13 8.125 12.4062 9.59375 11.4375 10.75L15.8438 15.1562C16.0312 15.3438 16.0312 15.6875 15.8438 15.875C15.6562 16.0625 15.3125 16.0625 15.125 15.875L10.7188 11.4375Z" fill="#DEE2E6"/>
</svg>
