<svg width="78" height="77" viewBox="0 0 78 77" fill="none" xmlns="http://www.w3.org/2000/svg">
<g clip-path="url(#clip0_5799_9998)">
<path fill-rule="evenodd" clip-rule="evenodd" d="M55.8016 54.9053C60.2363 50.479 62.731 44.4722 62.7369 38.2064C62.7428 31.9407 60.2594 25.9293 55.833 21.4946C51.4066 17.0599 45.3998 14.5652 39.1341 14.5593C32.8683 14.5534 26.8569 17.0368 22.4222 21.4632C17.9875 25.8896 15.4928 31.8964 15.4869 38.1621C15.481 44.4278 17.9645 50.4393 22.3908 54.874C26.8172 59.3087 32.824 61.8034 39.0897 61.8093C45.3555 61.8151 51.3669 59.3317 55.8016 54.9053ZM58.1859 57.2941C63.2541 52.2353 66.1052 45.3705 66.1119 38.2096C66.1186 31.0488 63.2804 24.1786 58.2217 19.1103C53.163 14.0421 46.2981 11.191 39.1373 11.1843C31.9764 11.1776 25.1062 14.0158 20.038 19.0745C14.9697 24.1332 12.1186 30.9981 12.1119 38.1589C12.1052 45.3198 14.9434 52.19 20.0021 57.2582C25.0608 62.3265 31.9257 65.1775 39.0866 65.1843C46.2474 65.191 53.1176 62.3528 58.1859 57.2941Z" fill="#E35D6A"/>
<path fill-rule="evenodd" clip-rule="evenodd" d="M29.5753 28.6302C29.892 28.314 30.3214 28.1366 30.769 28.1371C31.2165 28.1375 31.6456 28.3157 31.9617 28.6324L45.7737 42.4703L45.7809 32.2251C45.7811 32.0033 45.825 31.7836 45.9101 31.5787C45.9952 31.3738 46.1199 31.1876 46.2769 31.0309C46.4339 30.8741 46.6203 30.7498 46.8254 30.6651C47.0305 30.5804 47.2502 30.5369 47.4721 30.5371C47.694 30.5373 47.9137 30.5812 48.1186 30.6663C48.3235 30.7514 48.5096 30.8761 48.6664 31.0331C48.8231 31.1901 48.9474 31.3765 49.0321 31.5816C49.1169 31.7867 49.1604 32.0064 49.1602 32.2283L49.1467 46.5472C49.1468 46.7692 49.1031 46.989 49.0181 47.194C48.9331 47.3991 48.8084 47.5853 48.6513 47.7421C48.4942 47.8989 48.3077 48.0232 48.1025 48.1078C47.8973 48.1924 47.6775 48.2358 47.4555 48.2353L33.1366 48.2218C32.9147 48.2216 32.695 48.1777 32.4901 48.0926C32.2852 48.0075 32.0991 47.8829 31.9423 47.7258C31.7856 47.5688 31.6613 47.3824 31.5766 47.1773C31.4918 46.9722 31.4483 46.7525 31.4486 46.5306C31.449 46.0825 31.6274 45.6529 31.9446 45.3363C32.1016 45.1796 32.288 45.0553 32.4931 44.9706C32.6981 44.8859 32.9179 44.8424 33.1398 44.8426L43.3849 44.8546L29.573 31.0167C29.2568 30.6999 29.0795 30.2705 29.0799 29.823C29.0803 29.3754 29.2585 28.9464 29.5753 28.6302Z" fill="#E35D6A"/>
</g>
<defs>
<clipPath id="clip0_5799_9998">
<rect width="54" height="54" fill="white" transform="translate(0.928162 38.1484) rotate(-44.9462)"/>
</clipPath>
</defs>
</svg>
