<svg width="76" height="76" viewBox="0 0 76 76" fill="none" xmlns="http://www.w3.org/2000/svg">
<g clip-path="url(#clip0_5799_9997)">
<path fill-rule="evenodd" clip-rule="evenodd" d="M51.3225 18.3792C46.2134 14.752 39.8727 13.3029 33.6952 14.3507C27.5177 15.3986 22.0094 18.8575 18.3822 23.9666C14.755 29.0756 13.3059 35.4164 14.3537 41.5939C15.4016 47.7714 18.8605 53.2796 23.9696 56.9068C29.0787 60.5341 35.4194 61.9832 41.5969 60.9353C47.7744 59.8875 53.2827 56.4286 56.9099 51.3195C60.5371 46.2104 61.9862 39.8697 60.9383 33.6922C59.8905 27.5146 56.4316 22.0064 51.3225 18.3792ZM53.2763 15.6272C47.4373 11.4818 40.1908 9.82572 33.1308 11.0232C26.0708 12.2208 19.7756 16.1738 15.6302 22.0128C11.4848 27.8517 9.82875 35.0983 11.0263 42.1583C12.2238 49.2183 16.1769 55.5134 22.0158 59.6588C27.8548 63.8042 35.1013 65.4603 42.1613 64.2628C49.2213 63.0653 55.5165 59.1122 59.6619 53.2733C63.8073 47.4343 65.4633 40.1877 64.2658 33.1277C63.0683 26.0677 59.1152 19.7726 53.2763 15.6272Z" fill="#FEB272"/>
<path fill-rule="evenodd" clip-rule="evenodd" d="M29.8305 48.6527C29.4656 48.3936 29.2185 48.0002 29.1437 47.5589C29.0689 47.1177 29.1724 46.6648 29.4315 46.2998L40.7497 30.3577L30.6492 32.0733C30.4304 32.1104 30.2065 32.1041 29.9902 32.0547C29.7739 32.0052 29.5694 31.9137 29.3885 31.7852C29.2076 31.6568 29.0537 31.4939 28.9357 31.306C28.8177 31.1181 28.7379 30.9088 28.7008 30.6901C28.6637 30.4713 28.67 30.2474 28.7195 30.0311C28.7689 29.8148 28.8605 29.6103 28.9889 29.4294C29.1174 29.2484 29.2802 29.0946 29.4681 28.9766C29.656 28.8586 29.8653 28.7788 30.0841 28.7417L44.2013 26.3471C44.4201 26.3097 44.6441 26.3158 44.8606 26.3651C45.077 26.4144 45.2815 26.506 45.4625 26.6345C45.6435 26.763 45.7974 26.9259 45.9153 27.1139C46.0332 27.302 46.1129 27.5115 46.1497 27.7303L48.5443 41.8476C48.5814 42.0664 48.5751 42.2903 48.5257 42.5066C48.4762 42.7229 48.3847 42.9274 48.2562 43.1083C48.1278 43.2892 47.9649 43.4431 47.777 43.5611C47.5891 43.6791 47.3798 43.7589 47.161 43.796C46.7192 43.8709 46.2658 43.7673 45.9004 43.5079C45.7194 43.3794 45.5656 43.2166 45.4476 43.0287C45.3296 42.8408 45.2498 42.6315 45.2126 42.4127L43.5017 32.3114L32.1834 48.2536C31.9243 48.6186 31.5309 48.8656 31.0896 48.9405C30.6484 49.0153 30.1955 48.9118 29.8305 48.6527Z" fill="#FEB272"/>
</g>
<defs>
<clipPath id="clip0_5799_9997">
<rect width="54" height="54" fill="white" transform="translate(44.0316 75.2891) rotate(-144.627)"/>
</clipPath>
</defs>
</svg>
