<svg width="32" height="32" viewBox="0 0 32 32" fill="none" xmlns="http://www.w3.org/2000/svg">
<path d="M24 10.668C24 8.54624 23.1571 6.51141 21.6569 5.01111C20.1566 3.51082 18.1217 2.66797 16 2.66797C13.8783 2.66797 11.8434 3.51082 10.3431 5.01111C8.84286 6.51141 8 8.54624 8 10.668C8 20.0013 4 22.668 4 22.668H28C28 22.668 24 20.0013 24 10.668Z" stroke="#0094FF" stroke-width="3" stroke-linecap="round" stroke-linejoin="round"/>
<path d="M18.3067 28C18.0723 28.4041 17.7358 28.7395 17.331 28.9727C16.9262 29.2059 16.4672 29.3286 16 29.3286C15.5329 29.3286 15.0739 29.2059 14.6691 28.9727C14.2642 28.7395 13.9278 28.4041 13.6934 28" stroke="#0094FF" stroke-width="3" stroke-linecap="round" stroke-linejoin="round"/>
</svg>
