<svg width="12" height="18" viewBox="0 0 12 18" fill="none" xmlns="http://www.w3.org/2000/svg">
<path d="M0.8125 1.13818L2.46875 2.60693L3.875 1.16943C4.0625 0.981934 4.40625 0.981934 4.59375 1.16943L6 2.57568L7.375 1.16943C7.5625 0.981934 7.90625 0.981934 8.09375 1.16943L9.5 2.60693L11.1562 1.13818C11.3125 1.01318 11.5 0.981934 11.6875 1.07568C11.875 1.13818 12 1.32568 12 1.51318V16.5132C12 16.7319 11.875 16.8882 11.6875 16.9819C11.5 17.0757 11.3125 17.0444 11.1562 16.8882L9.5 15.4507L8.09375 16.8882C7.90625 17.0757 7.5625 17.0757 7.375 16.8882L6 15.4819L4.59375 16.8882C4.40625 17.0757 4.0625 17.0757 3.875 16.8882L2.46875 15.4507L0.8125 16.9194C0.65625 17.0444 0.46875 17.0757 0.28125 16.9819C0.09375 16.8882 0 16.7319 0 16.5132V1.51318C0 1.32568 0.09375 1.13818 0.28125 1.07568C0.46875 0.981934 0.65625 1.01318 0.8125 1.13818ZM1 15.4194L2.15625 14.3882C2.34375 14.2319 2.65625 14.2319 2.84375 14.4194L4.25 15.8257L5.625 14.4194C5.8125 14.2319 6.15625 14.2319 6.34375 14.4194L7.75 15.8257L9.125 14.4194C9.3125 14.2319 9.625 14.2319 9.8125 14.3882L11 15.4194V2.63818L9.8125 3.63818C9.625 3.82568 9.3125 3.82568 9.125 3.63818L7.75 2.23193L6.34375 3.63818C6.15625 3.82568 5.8125 3.82568 5.625 3.63818L4.25 2.23193L2.84375 3.63818C2.65625 3.82568 2.34375 3.82568 2.15625 3.63818L1 2.63818V15.4194ZM3 5.51318H9C9.25 5.51318 9.5 5.76318 9.5 6.01318C9.5 6.29443 9.25 6.51318 9 6.51318H3C2.71875 6.51318 2.5 6.29443 2.5 6.01318C2.5 5.76318 2.71875 5.51318 3 5.51318ZM2.5 12.0132C2.5 11.7632 2.71875 11.5132 3 11.5132H9C9.25 11.5132 9.5 11.7632 9.5 12.0132C9.5 12.2944 9.25 12.5132 9 12.5132H3C2.71875 12.5132 2.5 12.2944 2.5 12.0132ZM3 8.51318H9C9.25 8.51318 9.5 8.76318 9.5 9.01318C9.5 9.29443 9.25 9.51318 9 9.51318H3C2.71875 9.51318 2.5 9.29443 2.5 9.01318C2.5 8.76318 2.71875 8.51318 3 8.51318Z" fill="#DEE2E6"/>
</svg>
