<svg width="12" height="16" viewBox="0 0 12 16" fill="none" xmlns="http://www.w3.org/2000/svg">
<path d="M2 1C1.4375 1 1 1.46875 1 2V14C1 14.5625 1.4375 15 2 15H4V13C4 11.9062 4.875 11 6 11C7.09375 11 8 11.9062 8 13V15H10C10.5312 15 11 14.5625 11 14V2C11 1.46875 10.5312 1 10 1H2ZM7 13C7 12.4688 6.53125 12 6 12C5.4375 12 5 12.4688 5 13V15H7V13ZM4 16H2C0.875 16 0 15.125 0 14V2C0 0.90625 0.875 0 2 0H10C11.0938 0 12 0.90625 12 2V14C12 15.125 11.0938 16 10 16H8H7H5H4ZM2 3.75C2 3.34375 2.3125 3 2.75 3H4.25C4.65625 3 5 3.34375 5 3.75V5.25C5 5.6875 4.65625 6 4.25 6H2.75C2.3125 6 2 5.6875 2 5.25V3.75ZM3 4V5H4V4H3ZM7.75 3H9.25C9.65625 3 10 3.34375 10 3.75V5.25C10 5.6875 9.65625 6 9.25 6H7.75C7.3125 6 7 5.6875 7 5.25V3.75C7 3.34375 7.3125 3 7.75 3ZM8 5H9V4H8V5ZM2 7.75C2 7.34375 2.3125 7 2.75 7H4.25C4.65625 7 5 7.34375 5 7.75V9.25C5 9.6875 4.65625 10 4.25 10H2.75C2.3125 10 2 9.6875 2 9.25V7.75ZM3 8V9H4V8H3ZM7.75 7H9.25C9.65625 7 10 7.34375 10 7.75V9.25C10 9.6875 9.65625 10 9.25 10H7.75C7.3125 10 7 9.6875 7 9.25V7.75C7 7.34375 7.3125 7 7.75 7ZM8 9H9V8H8V9Z" fill="#DEE2E6"/>
</svg>
