<svg width="24" height="22" viewBox="0 0 24 22" fill="none" xmlns="http://www.w3.org/2000/svg">
<path d="M9.32812 0.5H14.625C15.7969 0.5 16.7812 1.25 17.1562 2.32812L17.5312 3.5H21C22.6406 3.5 24 4.85938 24 6.5V18.5C24 20.1875 22.6406 21.5 21 21.5H3C1.3125 21.5 0 20.1875 0 18.5V6.5C0 4.85938 1.3125 3.5 3 3.5H6.42188L6.84375 2.32812L7.875 2.65625L6.84375 2.32812C7.17188 1.25 8.20312 0.5 9.32812 0.5ZM8.95312 3.03125L8.29688 5C8.15625 5.46875 7.73438 5.75 7.21875 5.75H3C2.57812 5.75 2.25 6.125 2.25 6.5V18.5C2.25 18.9219 2.57812 19.25 3 19.25H21C21.375 19.25 21.75 18.9219 21.75 18.5V6.5C21.75 6.125 21.375 5.75 21 5.75H16.7344C16.2188 5.75 15.7969 5.46875 15.6562 5L15 3.03125C14.9531 2.89062 14.8125 2.75 14.625 2.75H9.32812C9.14062 2.75 9 2.89062 8.95312 3.03125ZM12 17.75C10.0781 17.75 8.39062 16.7656 7.45312 15.125C6.46875 13.5312 6.46875 11.5156 7.45312 9.875C8.39062 8.28125 10.0781 7.25 12 7.25C13.875 7.25 15.5625 8.28125 16.5 9.875C17.4844 11.5156 17.4844 13.5312 16.5 15.125C15.5625 16.7656 13.875 17.75 12 17.75ZM9 12.5C9 13.5781 9.5625 14.5625 10.5 15.125C11.3906 15.6406 12.5625 15.6406 13.5 15.125C14.3906 14.5625 15 13.5781 15 12.5C15 11.4688 14.3906 10.4844 13.5 9.92188C12.5625 9.40625 11.3906 9.40625 10.5 9.92188C9.5625 10.4844 9 11.4688 9 12.5Z" fill="#54595E"/>
</svg>
