<svg width="15" height="17" viewBox="0 0 15 17" fill="none" xmlns="http://www.w3.org/2000/svg">
<path d="M13.5938 8.375C13.5938 6.20703 12.4219 4.21484 10.5469 3.10156C8.64258 2.01758 6.32812 2.01758 4.45312 3.10156C2.54883 4.21484 1.40625 6.20703 1.40625 8.375C1.40625 10.5723 2.54883 12.5645 4.45312 13.6777C6.32812 14.7617 8.64258 14.7617 10.5469 13.6777C12.4219 12.5645 13.5938 10.5723 13.5938 8.375ZM0 8.375C0 5.70898 1.40625 3.24805 3.75 1.90039C6.06445 0.552734 8.90625 0.552734 11.25 1.90039C13.5645 3.24805 15 5.70898 15 8.375C15 11.0703 13.5645 13.5312 11.25 14.8789C8.90625 16.2266 6.06445 16.2266 3.75 14.8789C1.40625 13.5312 0 11.0703 0 8.375ZM6.79688 4.39062C6.79688 4.00977 7.08984 3.6875 7.5 3.6875C7.88086 3.6875 8.20312 4.00977 8.20312 4.39062V8.02344L10.6934 9.66406C11.0156 9.89844 11.1035 10.3379 10.8984 10.6602C10.6641 10.9824 10.2246 11.0703 9.90234 10.8359L7.08984 8.96094C6.91406 8.84375 6.79688 8.60938 6.79688 8.375V4.39062Z" fill="#0D6EFD"/>
</svg>
