<svg width="23" height="23" viewBox="0 0 23 23" fill="none" xmlns="http://www.w3.org/2000/svg">
<g id="cloud-download-fill" clip-path="url(#clip0_5799_10003)">
<path id="Vector" fill-rule="evenodd" clip-rule="evenodd" d="M11.5 0C9.60285 0.00594912 7.77038 0.690194 6.33363 1.92913C5.2325 2.87788 4.43469 4.11413 4.22913 5.35469C1.81987 5.88656 0 7.98531 0 10.5196C0 13.4636 2.45525 15.8125 5.43519 15.8125H10.7812V7.90625C10.7812 7.71563 10.857 7.53281 10.9918 7.39802C11.1266 7.26323 11.3094 7.1875 11.5 7.1875C11.6906 7.1875 11.8734 7.26323 12.0082 7.39802C12.143 7.53281 12.2188 7.71563 12.2188 7.90625V15.8125L18.239 15.8125C20.8466 15.8125 23 13.7569 23 11.1737C23 8.82194 21.2146 6.90575 18.9261 6.58231C18.5768 2.87356 15.3669 0 11.5 0ZM10.9911 22.7901C11.0579 22.8571 11.1372 22.9102 11.2245 22.9464C11.3118 22.9826 11.4055 23.0013 11.5 23.0013C11.5945 23.0013 11.6882 22.9826 11.7755 22.9464C11.8628 22.9102 11.9421 22.8571 12.0089 22.7901L16.3214 18.4776C16.4563 18.3427 16.5322 18.1596 16.5322 17.9688C16.5322 17.7779 16.4563 17.5948 16.3214 17.4599C16.1864 17.3249 16.0034 17.2491 15.8125 17.2491C15.6216 17.2491 15.4386 17.3249 15.3036 17.4599L12.2188 20.5462L12.2188 15.8125H10.7812L10.7813 20.5462L7.69637 17.4599C7.56141 17.3249 7.37837 17.2491 7.1875 17.2491C6.99663 17.2491 6.81359 17.3249 6.67863 17.4599C6.54366 17.5948 6.46784 17.7779 6.46784 17.9688C6.46784 18.1596 6.54366 18.3427 6.67863 18.4776L10.9911 22.7901Z" fill="#0A58CA"/>
</g>
<defs>
<clipPath id="clip0_5799_10003">
<rect width="23" height="23" fill="white"/>
</clipPath>
</defs>
</svg>
