<svg width="14" height="15" viewBox="0 0 14 15" fill="none" xmlns="http://www.w3.org/2000/svg">
<path d="M1.5 1.01318C1.21875 1.01318 1 1.26318 1 1.51318V4.51318C1 4.79443 1.21875 5.01318 1.5 5.01318H4.5C4.75 5.01318 5 4.79443 5 4.51318V1.51318C5 1.26318 4.75 1.01318 4.5 1.01318H1.5ZM0 1.51318C0 0.700684 0.65625 0.0131836 1.5 0.0131836H4.5C5.3125 0.0131836 6 0.700684 6 1.51318V4.51318C6 5.35693 5.3125 6.01318 4.5 6.01318H1.5C0.65625 6.01318 0 5.35693 0 4.51318V1.51318ZM1.5 9.01318C1.21875 9.01318 1 9.26318 1 9.51318V12.5132C1 12.7944 1.21875 13.0132 1.5 13.0132H4.5C4.75 13.0132 5 12.7944 5 12.5132V9.51318C5 9.26318 4.75 9.01318 4.5 9.01318H1.5ZM0 9.51318C0 8.70068 0.65625 8.01318 1.5 8.01318H4.5C5.3125 8.01318 6 8.70068 6 9.51318V12.5132C6 13.3569 5.3125 14.0132 4.5 14.0132H1.5C0.65625 14.0132 0 13.3569 0 12.5132V9.51318ZM12.5 1.01318H9.5C9.21875 1.01318 9 1.26318 9 1.51318V4.51318C9 4.79443 9.21875 5.01318 9.5 5.01318H12.5C12.75 5.01318 13 4.79443 13 4.51318V1.51318C13 1.26318 12.75 1.01318 12.5 1.01318ZM9.5 0.0131836H12.5C13.3125 0.0131836 14 0.700684 14 1.51318V4.51318C14 5.35693 13.3125 6.01318 12.5 6.01318H9.5C8.65625 6.01318 8 5.35693 8 4.51318V1.51318C8 0.700684 8.65625 0.0131836 9.5 0.0131836ZM9.5 9.01318C9.21875 9.01318 9 9.26318 9 9.51318V12.5132C9 12.7944 9.21875 13.0132 9.5 13.0132H12.5C12.75 13.0132 13 12.7944 13 12.5132V9.51318C13 9.26318 12.75 9.01318 12.5 9.01318H9.5ZM8 9.51318C8 8.70068 8.65625 8.01318 9.5 8.01318H12.5C13.3125 8.01318 14 8.70068 14 9.51318V12.5132C14 13.3569 13.3125 14.0132 12.5 14.0132H9.5C8.65625 14.0132 8 13.3569 8 12.5132V9.51318Z" fill="#DEE2E6"/>
</svg>
