<svg width="24" height="24" viewBox="0 0 24 24" fill="none" xmlns="http://www.w3.org/2000/svg">
<g id="download">
<path id="Vector" fill-rule="evenodd" clip-rule="evenodd" d="M0.75 14.8516C0.948912 14.8516 1.13968 14.9306 1.28033 15.0712C1.42098 15.2119 1.5 15.4027 1.5 15.6016V19.3516C1.5 19.7494 1.65804 20.1309 1.93934 20.4122C2.22064 20.6935 2.60218 20.8516 3 20.8516H21C21.3978 20.8516 21.7794 20.6935 22.0607 20.4122C22.342 20.1309 22.5 19.7494 22.5 19.3516V15.6016C22.5 15.4027 22.579 15.2119 22.7197 15.0712C22.8603 14.9306 23.0511 14.8516 23.25 14.8516C23.4489 14.8516 23.6397 14.9306 23.7803 15.0712C23.921 15.2119 24 15.4027 24 15.6016V19.3516C24 20.1472 23.6839 20.9103 23.1213 21.4729C22.5587 22.0355 21.7956 22.3516 21 22.3516H3C2.20435 22.3516 1.44129 22.0355 0.87868 21.4729C0.316071 20.9103 0 20.1472 0 19.3516V15.6016C0 15.4027 0.0790176 15.2119 0.21967 15.0712C0.360322 14.9306 0.551088 14.8516 0.75 14.8516Z" fill="black"/>
<path id="Vector_2" fill-rule="evenodd" clip-rule="evenodd" d="M11.4699 17.781C11.5396 17.8508 11.6223 17.9063 11.7134 17.9441C11.8046 17.9819 11.9022 18.0013 12.0009 18.0013C12.0995 18.0013 12.1972 17.9819 12.2883 17.9441C12.3795 17.9063 12.4622 17.8508 12.5319 17.781L17.0319 13.281C17.1727 13.1402 17.2518 12.9492 17.2518 12.75C17.2518 12.5508 17.1727 12.3598 17.0319 12.219C16.8911 12.0782 16.7 11.9991 16.5009 11.9991C16.3017 11.9991 16.1107 12.0782 15.9699 12.219L12.7509 15.4395V2.25C12.7509 2.05109 12.6719 1.86032 12.5312 1.71967C12.3906 1.57902 12.1998 1.5 12.0009 1.5C11.802 1.5 11.6112 1.57902 11.4706 1.71967C11.3299 1.86032 11.2509 2.05109 11.2509 2.25V15.4395L8.03189 12.219C7.89106 12.0782 7.70005 11.9991 7.50089 11.9991C7.30172 11.9991 7.11072 12.0782 6.96989 12.219C6.82906 12.3598 6.74994 12.5508 6.74994 12.75C6.74994 12.9492 6.82906 13.1402 6.96989 13.281L11.4699 17.781Z" fill="black"/>
</g>
</svg>
