<svg width="16" height="16" viewBox="0 0 16 16" fill="none" xmlns="http://www.w3.org/2000/svg">
<path d="M2 14.5H3V16H2C0.875 16 0 15.125 0 14V2C0 0.90625 0.875 0 2 0H7.15625C7.6875 0 8.1875 0.21875 8.5625 0.59375L11.4062 3.4375C11.7812 3.8125 12 4.3125 12 4.84375V9H10.5V5H8C7.4375 5 7 4.5625 7 4V1.5H2C1.71875 1.5 1.5 1.75 1.5 2V14C1.5 14.2812 1.71875 14.5 2 14.5ZM6.25 11H6.75C7.4375 11 8 11.5625 8 12.25V12.5C8 12.7812 7.75 13 7.5 13C7.21875 13 7 12.7812 7 12.5V12.25C7 12.125 6.875 12 6.75 12H6.25C6.09375 12 6 12.125 6 12.25V14.75C6 14.9062 6.09375 15 6.25 15H6.75C6.875 15 7 14.9062 7 14.75V14.5C7 14.25 7.21875 14 7.5 14C7.75 14 8 14.25 8 14.5V14.75C8 15.4688 7.4375 16 6.75 16H6.25C5.53125 16 5 15.4688 5 14.75V12.25C5 11.5625 5.53125 11 6.25 11ZM10.4062 11H11.5C11.75 11 12 11.25 12 11.5C12 11.7812 11.75 12 11.5 12H10.4062C10.1562 12 10 12.1875 10 12.4375C10 12.5938 10.0938 12.7188 10.2188 12.8125L11.4062 13.3125C11.9062 13.5312 12.25 14.0625 12.25 14.5938C12.25 15.375 11.5938 16 10.8125 16H9.5C9.21875 16 9 15.7812 9 15.5C9 15.25 9.21875 15 9.5 15H10.8125C11.0625 15 11.25 14.8438 11.25 14.5938C11.25 14.4375 11.1562 14.2812 11 14.2188L9.8125 13.7188C9.3125 13.5 9 12.9688 9 12.4375C9 11.6562 9.625 11 10.4062 11ZM13.5 11C13.75 11 14 11.25 14 11.5V12.5C14 13.2188 14.1562 13.9375 14.5 14.5625C14.8125 13.9375 15 13.2188 15 12.5V11.5C15 11.25 15.2188 11 15.5 11C15.75 11 16 11.25 16 11.5V12.5C16 13.5938 15.6562 14.6562 15.0625 15.5625L14.9062 15.7812C14.8125 15.9375 14.6562 16 14.5 16C14.3125 16 14.1562 15.9375 14.0625 15.7812L13.9062 15.5625C13.3125 14.6562 13 13.5938 13 12.5V11.5C13 11.25 13.2188 11 13.5 11Z" fill="black"/>
</svg>
