<svg width="24" height="24" viewBox="0 0 24 24" fill="none" xmlns="http://www.w3.org/2000/svg">
<path opacity="0.4" d="M21.9999 15.941C21.9999 18.731 19.7599 20.991 16.9699 21.001H16.9599H7.04988C4.26988 21.001 1.99988 18.751 1.99988 15.961V15.951C1.99988 15.951 2.00588 11.525 2.01388 9.29898C2.01488 8.88098 2.49488 8.64698 2.82188 8.90698C5.19788 10.792 9.44688 14.229 9.49988 14.274C10.2099 14.843 11.1099 15.164 12.0299 15.164C12.9499 15.164 13.8499 14.843 14.5599 14.263C14.6129 14.228 18.7669 10.894 21.1789 8.97798C21.5069 8.71698 21.9889 8.95098 21.9899 9.36798C21.9999 11.577 21.9999 15.941 21.9999 15.941Z" fill="#8A92A6"/>
<path d="M21.476 5.674C20.61 4.042 18.906 3 17.03 3H7.05001C5.17401 3 3.47001 4.042 2.60401 5.674C2.41001 6.039 2.50201 6.494 2.82501 6.752L10.25 12.691C10.77 13.111 11.4 13.32 12.03 13.32C12.034 13.32 12.037 13.32 12.04 13.32C12.043 13.32 12.047 13.32 12.05 13.32C12.68 13.32 13.31 13.111 13.83 12.691L21.255 6.752C21.578 6.494 21.67 6.039 21.476 5.674Z" fill="#8A92A6"/>
</svg>
