<svg width="25" height="24" viewBox="0 0 25 24" fill="none" xmlns="http://www.w3.org/2000/svg">
<g id="Iconly/Light-Outline/Hide">
<g id="Hide">
<path id="Fill 1" fill-rule="evenodd" clip-rule="evenodd" d="M10.591 15.1767C10.4273 15.1767 10.2636 15.1145 10.1391 14.9891C9.50987 14.3607 9.16284 13.5251 9.16284 12.6367C9.16284 10.795 10.6601 9.29688 12.5001 9.29688C13.3851 9.29688 14.2446 9.65413 14.8577 10.2774C15.1049 10.5298 15.1024 10.934 14.85 11.1812C14.5985 11.4302 14.1943 11.4259 13.9462 11.1753C13.5719 10.7941 13.0449 10.5758 12.5001 10.5758C11.3652 10.5758 10.4418 11.5001 10.4418 12.6367C10.4418 13.1832 10.6558 13.6982 11.0429 14.0853C11.2927 14.3352 11.2927 14.7393 11.0438 14.9891C10.9184 15.1145 10.7547 15.1767 10.591 15.1767Z" fill="#CACED8"/>
<path id="Fill 3" fill-rule="evenodd" clip-rule="evenodd" d="M12.984 15.9222C12.6813 15.9222 12.4119 15.7056 12.3556 15.397C12.2925 15.0499 12.5227 14.7165 12.8706 14.6535C13.7062 14.5017 14.3679 13.8383 14.5179 13.0019C14.581 12.6549 14.9136 12.4263 15.2606 12.486C15.6085 12.5483 15.8395 12.8808 15.7773 13.2287C15.5326 14.5869 14.4565 15.6647 13.0991 15.912C13.0608 15.9188 13.0215 15.9222 12.984 15.9222Z" fill="#CACED8"/>
<g id="Group 7">
<mask id="mask0_41_1426" style="mask-type:luminance" maskUnits="userSpaceOnUse" x="3" y="5" width="15" height="13">
<path id="Clip 6" fill-rule="evenodd" clip-rule="evenodd" d="M3.97363 5.80469H17.6895V17.8254H3.97363V5.80469Z" fill="white"/>
</mask>
<g mask="url(#mask0_41_1426)">
<path id="Fill 5" fill-rule="evenodd" clip-rule="evenodd" d="M7.94227 17.8254C7.80414 17.8254 7.66516 17.7802 7.54749 17.689C6.10567 16.5566 4.88724 14.8965 4.02607 12.8894C3.95615 12.7274 3.95615 12.545 4.02607 12.3838C4.89662 10.3682 6.12272 8.69953 7.57222 7.55954C10.5275 5.22073 14.4616 5.21306 17.4467 7.57659C17.7238 7.79572 17.7707 8.19817 17.5516 8.47528C17.3316 8.75068 16.9309 8.79928 16.6529 8.5793C14.1239 6.57729 10.866 6.58411 8.36433 8.56395C7.13993 9.52744 6.08862 10.9309 5.31271 12.6379C6.08094 14.3347 7.12288 15.7296 8.3379 16.6828C8.61586 16.9011 8.66361 17.3036 8.44533 17.5807C8.31914 17.741 8.13156 17.8254 7.94227 17.8254Z" fill="#CACED8"/>
</g>
</g>
<g id="Group 10">
<mask id="mask1_41_1426" style="mask-type:luminance" maskUnits="userSpaceOnUse" x="9" y="9" width="13" height="11">
<path id="Clip 9" fill-rule="evenodd" clip-rule="evenodd" d="M9.70093 9.32031H21.0262V19.5079H9.70093V9.32031Z" fill="white"/>
</mask>
<g mask="url(#mask1_41_1426)">
<path id="Fill 8" fill-rule="evenodd" clip-rule="evenodd" d="M12.4998 19.5079C11.7009 19.5079 10.9063 19.3783 10.1389 19.1233C9.80378 19.0116 9.62217 18.6493 9.73387 18.3142C9.84556 17.9782 10.2062 17.8 10.543 17.9092C11.18 18.1215 11.8382 18.2289 12.4998 18.2289C15.4227 18.2289 18.0941 16.1468 19.6876 12.6415C19.2988 11.7897 18.8461 11.0181 18.3396 10.3445C18.1273 10.0623 18.1836 9.66069 18.4658 9.44838C18.7472 9.23608 19.1488 9.29406 19.3611 9.57543C19.9784 10.3948 20.5207 11.3421 20.9734 12.3875C21.0442 12.5495 21.0442 12.7336 20.9734 12.8948C19.1863 17.0361 16.0187 19.5079 12.4998 19.5079Z" fill="#CACED8"/>
</g>
</g>
<g id="Group 13">
<mask id="mask2_41_1426" style="mask-type:luminance" maskUnits="userSpaceOnUse" x="5" y="5" width="15" height="15">
<path id="Clip 12" fill-rule="evenodd" clip-rule="evenodd" d="M5.13647 5.27344H19.8646V20.0012H5.13647V5.27344Z" fill="white"/>
</mask>
<g mask="url(#mask2_41_1426)">
<path id="Fill 11" fill-rule="evenodd" clip-rule="evenodd" d="M5.77575 20.0018C5.61204 20.0018 5.44833 19.9396 5.32384 19.8142C5.07402 19.5644 5.07402 19.1603 5.32384 18.9104L18.7735 5.46081C19.0233 5.21098 19.4274 5.21098 19.6773 5.46081C19.9271 5.71063 19.9271 6.11564 19.6773 6.36546L6.22765 19.8142C6.10316 19.9396 5.93945 20.0018 5.77575 20.0018Z" fill="#CACED8"/>
</g>
</g>
</g>
</g>
</svg>
