<svg width="20" height="17" viewBox="0 0 20 17" fill="none" xmlns="http://www.w3.org/2000/svg">
<path d="M6.3125 9H11C11.5312 9 12 8.5625 12 8V2C12 1.46875 11.5312 1 11 1H2C1.4375 1 1 1.46875 1 2V8C1 8.5625 1.4375 9 2 9H3C3.53125 9 4 9.46875 4 10V10.5L5.71875 9.21875C5.90625 9.09375 6.09375 9 6.3125 9ZM11 10H6.3125L3.78125 11.9062C3.625 12.0312 3.4375 12.0312 3.25 11.9688C3.09375 11.875 3 11.7188 3 11.5V11V10H2C0.875 10 0 9.125 0 8V2C0 0.90625 0.875 0 2 0H11C12.0938 0 13 0.90625 13 2V8C13 9.125 12.0938 10 11 10ZM10 14C8.875 14 8 13.125 8 12V11H9V12C9 12.5625 9.4375 13 10 13H13.6562C13.875 13 14.0938 13.0938 14.25 13.2188L16 14.5V14C16 13.4688 16.4375 13 17 13H18C18.5312 13 19 12.5625 19 12V6C19 5.46875 18.5312 5 18 5H14V4H18C19.0938 4 20 4.90625 20 6V12C20 13.125 19.0938 14 18 14H17V15V15.5C17 15.7188 16.875 15.875 16.7188 15.9688C16.5312 16.0312 16.3438 16.0312 16.1875 15.9062L13.6562 14H10Z" fill="#DEE2E6"/>
</svg>
