<svg width="40" height="40" viewBox="0 0 40 40" fill="none" xmlns="http://www.w3.org/2000/svg">
<path d="M20 1.66797C18.6739 1.66797 17.4021 2.19475 16.4645 3.13243C15.5268 4.07012 15 5.34189 15 6.66797V20.0013C15 21.3274 15.5268 22.5992 16.4645 23.5368C17.4021 24.4745 18.6739 25.0013 20 25.0013C21.3261 25.0013 22.5979 24.4745 23.5355 23.5368C24.4732 22.5992 25 21.3274 25 20.0013V6.66797C25 5.34189 24.4732 4.07012 23.5355 3.13243C22.5979 2.19475 21.3261 1.66797 20 1.66797V1.66797Z" stroke="#0094FF" stroke-width="3" stroke-linecap="round" stroke-linejoin="round"/>
<path d="M31.6668 16.668V20.0013C31.6668 23.0955 30.4377 26.063 28.2497 28.2509C26.0618 30.4388 23.0944 31.668 20.0002 31.668C16.906 31.668 13.9385 30.4388 11.7506 28.2509C9.56266 26.063 8.3335 23.0955 8.3335 20.0013V16.668" stroke="#0094FF" stroke-width="3" stroke-linecap="round" stroke-linejoin="round"/>
<path d="M20 31.668V38.3346" stroke="#0094FF" stroke-width="3" stroke-linecap="round" stroke-linejoin="round"/>
<path d="M13.3335 38.3359H26.6668" stroke="#0094FF" stroke-width="3" stroke-linecap="round" stroke-linejoin="round"/>
</svg>
