<svg width="40" height="40" viewBox="0 0 40 40" fill="none" xmlns="http://www.w3.org/2000/svg">
<path d="M20.4165 22.5C21.7972 22.5 22.9165 21.3807 22.9165 20C22.9165 18.6193 21.7972 17.5 20.4165 17.5C19.0358 17.5 17.9165 18.6193 17.9165 20C17.9165 21.3807 19.0358 22.5 20.4165 22.5Z" fill="#0094FF"/>
<path d="M32.0833 22.5C33.464 22.5 34.5833 21.3807 34.5833 20C34.5833 18.6193 33.464 17.5 32.0833 17.5C30.7025 17.5 29.5833 18.6193 29.5833 20C29.5833 21.3807 30.7025 22.5 32.0833 22.5Z" fill="#0094FF"/>
<path d="M8.75 22.5C10.1307 22.5 11.25 21.3807 11.25 20C11.25 18.6193 10.1307 17.5 8.75 17.5C7.36929 17.5 6.25 18.6193 6.25 20C6.25 21.3807 7.36929 22.5 8.75 22.5Z" fill="#0094FF"/>
</svg>
