<svg width="23" height="26" viewBox="0 0 23 26" fill="none" xmlns="http://www.w3.org/2000/svg">
<path d="M18.5781 4.42188C17.3594 3.20312 15.3438 3.20312 14.125 4.42188L5.17188 13.4219C3.10938 15.4844 3.10938 18.8125 5.17188 20.8281C7.1875 22.8906 10.5156 22.8906 12.5781 20.8281L19.7031 13.7031C20.125 13.2812 20.8281 13.2812 21.25 13.7031C21.7188 14.1719 21.7188 14.875 21.25 15.2969L14.1719 22.4219C11.2188 25.375 6.48438 25.375 3.57812 22.4219C0.625 19.5156 0.625 14.7812 3.57812 11.8281L12.5781 2.82812C14.6406 0.765625 18.0625 0.765625 20.1719 2.82812C22.2344 4.9375 22.2344 8.35938 20.1719 10.4219L11.5469 19.0469C10.0469 20.5469 7.60938 20.4062 6.29688 18.7656C5.17188 17.3594 5.3125 15.3438 6.57812 14.0781L13.7031 6.95312C14.125 6.53125 14.8281 6.53125 15.25 6.95312C15.7188 7.42188 15.7188 8.125 15.25 8.54688L8.17188 15.6719C7.70312 16.1406 7.65625 16.8438 8.07812 17.3594C8.54688 17.9219 9.39062 18.0156 9.95312 17.4531L18.5781 8.82812C19.7969 7.60938 19.7969 5.64062 18.5781 4.42188Z" fill="#54595E"/>
</svg>
