<svg width="20" height="17" viewBox="0 0 20 17" fill="none" xmlns="http://www.w3.org/2000/svg">
<path d="M3 3.5C3 4.0625 3.28125 4.53125 3.75 4.8125C4.1875 5.09375 4.78125 5.09375 5.25 4.8125C5.6875 4.53125 6 4.0625 6 3.5C6 2.96875 5.6875 2.5 5.25 2.21875C4.78125 1.9375 4.1875 1.9375 3.75 2.21875C3.28125 2.5 3 2.96875 3 3.5ZM7 3.5C7 4.40625 6.5 5.21875 5.75 5.6875C4.96875 6.125 4 6.125 3.25 5.6875C2.46875 5.21875 2 4.40625 2 3.5C2 2.625 2.46875 1.8125 3.25 1.34375C4 0.90625 4.96875 0.90625 5.75 1.34375C6.5 1.8125 7 2.625 7 3.5ZM10 6C9.28125 6 8.625 6.40625 8.25 7C7.90625 7.625 7.90625 8.40625 8.25 9C8.625 9.625 9.28125 10 10 10C10.6875 10 11.3438 9.625 11.7188 9C12.0625 8.40625 12.0625 7.625 11.7188 7C11.3438 6.40625 10.6875 6 10 6ZM10 11C8.90625 11 7.9375 10.4375 7.375 9.5C6.84375 8.59375 6.84375 7.4375 7.375 6.5C7.9375 5.59375 8.90625 5 10 5C11.0625 5 12.0312 5.59375 12.5938 6.5C13.125 7.4375 13.125 8.59375 12.5938 9.5C12.0312 10.4375 11.0625 11 10 11ZM8.15625 13C6.46875 13 5.0625 14.3438 5 16H14.9688C14.9062 14.3438 13.5 13 11.8125 13H8.15625ZM8.15625 12H11.8125C14.125 12 16 13.875 16 16.1875C16 16.6562 15.625 17 15.1562 17H4.8125C4.34375 17 4 16.625 4 16.1875C4 13.875 5.84375 12 8.15625 12ZM16 2C15.4375 2 14.9688 2.3125 14.6875 2.75C14.4062 3.21875 14.4062 3.8125 14.6875 4.25C14.9688 4.71875 15.4375 5 16 5C16.5312 5 17 4.71875 17.2812 4.25C17.5625 3.8125 17.5625 3.21875 17.2812 2.75C17 2.3125 16.5312 2 16 2ZM16 6C15.0938 6 14.2812 5.53125 13.8125 4.75C13.375 4 13.375 3.03125 13.8125 2.25C14.2812 1.5 15.0938 1 16 1C16.875 1 17.6875 1.5 18.1562 2.25C18.5938 3.03125 18.5938 4 18.1562 4.75C17.6875 5.53125 16.875 6 16 6ZM16.5 8H14C14 7.65625 13.9375 7.34375 13.875 7H16.5C18.4062 7 20 8.59375 20 10.5C20 10.7812 19.75 11 19.5 11C19.2188 11 19 10.7812 19 10.5C19 9.125 17.875 8 16.5 8ZM6 8H3.5C2.09375 8 1 9.125 1 10.5C1 10.7812 0.75 11 0.5 11C0.21875 11 0 10.7812 0 10.5C0 8.59375 1.5625 7 3.5 7H6.125C6.03125 7.34375 6 7.65625 6 8Z" fill="#DEE2E6"/>
</svg>
