<svg width="12" height="16" viewBox="0 0 12 16" fill="none" xmlns="http://www.w3.org/2000/svg">
<path d="M10 15C10.5312 15 11 14.5625 11 14V6H7.5C6.65625 6 6 5.34375 6 4.5V1H2C1.4375 1 1 1.46875 1 2V14C1 14.5625 1.4375 15 2 15H10ZM7.5 5H10.9688C10.9375 4.9375 10.9062 4.84375 10.8438 4.78125L7.21875 1.15625C7.15625 1.09375 7.0625 1.0625 7 1.03125V4.5C7 4.78125 7.21875 5 7.5 5ZM2 0H6.875C7.25 0 7.65625 0.1875 7.9375 0.46875L11.5312 4.0625C11.8125 4.34375 12 4.75 12 5.125V14C12 15.125 11.0938 16 10 16H2C0.875 16 0 15.125 0 14V2C0 0.90625 0.875 0 2 0ZM3.5 8H8.5C8.75 8 9 8.25 9 8.5C9 8.78125 8.75 9 8.5 9H3.5C3.21875 9 3 8.78125 3 8.5C3 8.25 3.21875 8 3.5 8ZM3.5 10H8.5C8.75 10 9 10.25 9 10.5C9 10.7812 8.75 11 8.5 11H3.5C3.21875 11 3 10.7812 3 10.5C3 10.25 3.21875 10 3.5 10ZM3.5 12H8.5C8.75 12 9 12.25 9 12.5C9 12.7812 8.75 13 8.5 13H3.5C3.21875 13 3 12.7812 3 12.5C3 12.25 3.21875 12 3.5 12Z" fill="#DEE2E6"/>
</svg>
