<svg width="17" height="14" viewBox="0 0 17 14" fill="none" xmlns="http://www.w3.org/2000/svg">
<path d="M5.875 1.84375L3.375 4.84375C3.28125 4.9375 3.15625 5 3 5C2.875 5.03125 2.71875 4.96875 2.625 4.875L1.125 3.375C0.9375 3.1875 0.9375 2.84375 1.125 2.65625C1.3125 2.46875 1.65625 2.46875 1.84375 2.65625L2.9375 3.78125L5.09375 1.1875C5.28125 0.96875 5.59375 0.96875 5.8125 1.125C6.03125 1.3125 6.0625 1.625 5.875 1.84375ZM5.875 6.84375L3.375 9.84375C3.28125 9.9375 3.15625 10 3 10C2.875 10.0312 2.71875 9.96875 2.625 9.875L1.125 8.375C0.9375 8.1875 0.9375 7.84375 1.125 7.65625C1.3125 7.46875 1.65625 7.46875 1.84375 7.65625L2.9375 8.78125L5.09375 6.1875C5.28125 5.96875 5.59375 5.96875 5.8125 6.125C6.03125 6.3125 6.0625 6.625 5.875 6.84375ZM7 3C7 2.75 7.21875 2.5 7.5 2.5H16.5C16.75 2.5 17 2.75 17 3C17 3.28125 16.75 3.5 16.5 3.5H7.5C7.21875 3.5 7 3.28125 7 3ZM7 8C7 7.75 7.21875 7.5 7.5 7.5H16.5C16.75 7.5 17 7.75 17 8C17 8.28125 16.75 8.5 16.5 8.5H7.5C7.21875 8.5 7 8.28125 7 8ZM6 13C6 12.75 6.21875 12.5 6.5 12.5H16.5C16.75 12.5 17 12.75 17 13C17 13.2812 16.75 13.5 16.5 13.5H6.5C6.21875 13.5 6 13.2812 6 13ZM4 13C4 13.5625 3.53125 14 3 14C2.4375 14 2 13.5625 2 13C2 12.4688 2.4375 12 3 12C3.53125 12 4 12.4688 4 13Z" fill="#DEE2E6"/>
</svg>
