<svg width="29" height="25" viewBox="0 0 29 25" fill="none" xmlns="http://www.w3.org/2000/svg">
<path fill-rule="evenodd" clip-rule="evenodd" d="M6.87878 14.5C6.28205 14.5 5.70975 14.2629 5.28779 13.841C4.86584 13.419 4.62878 12.8467 4.62878 12.25C4.62878 11.6533 4.86584 11.081 5.28779 10.659C5.70975 10.2371 6.28205 10 6.87878 10C7.47552 10 8.04782 10.2371 8.46977 10.659C8.89173 11.081 9.12878 11.6533 9.12878 12.25C9.12878 12.8467 8.89173 13.419 8.46977 13.841C8.04782 14.2629 7.47552 14.5 6.87878 14.5ZM14.3788 14.5C13.782 14.5 13.2098 14.2629 12.7878 13.841C12.3658 13.419 12.1288 12.8467 12.1288 12.25C12.1288 11.6533 12.3658 11.081 12.7878 10.659C13.2098 10.2371 13.782 10 14.3788 10C14.9755 10 15.5478 10.2371 15.9698 10.659C16.3917 11.081 16.6288 11.6533 16.6288 12.25C16.6288 12.8467 16.3917 13.419 15.9698 13.841C15.5478 14.2629 14.9755 14.5 14.3788 14.5ZM21.8788 14.5C21.282 14.5 20.7098 14.2629 20.2878 13.841C19.8658 13.419 19.6288 12.8467 19.6288 12.25C19.6288 11.6533 19.8658 11.081 20.2878 10.659C20.7098 10.2371 21.282 10 21.8788 10C22.4755 10 23.0478 10.2371 23.4698 10.659C23.8917 11.081 24.1288 11.6533 24.1288 12.25C24.1288 12.8467 23.8917 13.419 23.4698 13.841C23.0478 14.2629 22.4755 14.5 21.8788 14.5Z" fill="black"/>
</svg>
