<svg width="42" height="48" viewBox="0 0 42 48" fill="none" xmlns="http://www.w3.org/2000/svg">
<path d="M15.9375 4.875L14.1562 7.5H27.75L25.9688 4.875C25.875 4.6875 25.5938 4.5 25.3125 4.5H16.5938C16.3125 4.5 16.0312 4.6875 15.9375 4.875ZM29.7188 2.34375L33.1875 7.5H34.5H39H39.75C40.9688 7.5 42 8.53125 42 9.75C42 11.0625 40.9688 12 39.75 12H39V40.5C39 44.7188 35.625 48 31.5 48H10.5C6.28125 48 3 44.7188 3 40.5V12H2.25C0.9375 12 0 11.0625 0 9.75C0 8.53125 0.9375 7.5 2.25 7.5H3H7.5H8.71875L12.1875 2.34375C13.125 0.9375 14.8125 0 16.5938 0H25.3125C27.0938 0 28.7812 0.9375 29.7188 2.34375ZM7.5 12V40.5C7.5 42.1875 8.8125 43.5 10.5 43.5H31.5C33.0938 43.5 34.5 42.1875 34.5 40.5V12H7.5ZM15 18V37.5C15 38.3438 14.25 39 13.5 39C12.6562 39 12 38.3438 12 37.5V18C12 17.25 12.6562 16.5 13.5 16.5C14.25 16.5 15 17.25 15 18ZM22.5 18V37.5C22.5 38.3438 21.75 39 21 39C20.1562 39 19.5 38.3438 19.5 37.5V18C19.5 17.25 20.1562 16.5 21 16.5C21.75 16.5 22.5 17.25 22.5 18ZM30 18V37.5C30 38.3438 29.25 39 28.5 39C27.6562 39 27 38.3438 27 37.5V18C27 17.25 27.6562 16.5 28.5 16.5C29.25 16.5 30 17.25 30 18Z" fill="#DC3545"/>
</svg>
